<?xml version="1.0" encoding="UTF-8"?>
<svg width="50px" height="43px" viewBox="0 0 50 43" version="1.1" xmlns="http://www.w3.org/2000/svg" xmlns:xlink="http://www.w3.org/1999/xlink">
    <!-- Generator: Sketch 41 (35326) - http://www.bohemiancoding.com/sketch -->
    <title>Shape</title>
    <desc>Created with Sketch.</desc>
    <defs></defs>
    <g id="Page-1" stroke="none" stroke-width="1" fill="none" fill-rule="evenodd">
        <g id="Safaty-Bio-Life---2" transform="translate(-273.000000, -1666.000000)" fill="#7ED321">
            <g id="Group-2" transform="translate(273.000000, 1653.000000)">
                <path d="M49.1724347,14.5598984 C49.0763123,14.0723474 48.6950878,13.6911229 48.2075367,13.5950004 C37.9263123,11.5709188 27.3714143,14.7792861 19.9724347,22.1782657 C12.6993735,29.4513269 9.47896532,39.77398 11.2940674,49.8882657 L10.7695776,50.4127555 C10.5954959,50.5868372 10.4263123,50.7656127 10.2575367,50.9445923 C9.80549593,51.4245923 7.26121022,53.7378576 1.55508777,52.1401025 C0.904067361,51.9578576 0.228148994,52.3378576 0.0457000143,52.9890821 C-0.136748965,53.6403065 0.243455116,54.3160208 0.894679606,54.4984698 C2.55998573,54.9647963 4.01978165,55.1498984 5.28978165,55.1498984 C9.27100614,55.1498984 11.3777408,53.3270412 12.0399857,52.62398 C12.1920265,52.4625514 12.3442714,52.3013269 12.5012102,52.1443882 L13.1254959,51.5201025 C14.8989653,51.82398 16.6775367,51.9731637 18.4448837,51.9731637 C26.6767204,51.9731637 34.6501898,48.7337759 40.5889653,42.7947963 C47.988149,35.3960208 51.1967204,24.8409188 49.1724347,14.5598984 L49.1724347,14.5598984 Z M38.8575367,41.0633678 C32.6279449,47.2929596 23.9703939,50.2990821 15.2944755,49.351531 L36.0446796,28.6011229 C36.5228429,28.1229596 36.5228429,27.3476535 36.0446796,26.8694902 C35.5665163,26.3913269 34.7910061,26.3913269 34.313047,26.8694902 L13.4477408,47.7345923 C12.4101898,38.971531 15.4118225,30.2023474 21.7040674,23.9101025 C28.3291694,17.2852045 37.6997816,14.3047963 46.918149,15.8492861 C48.463047,25.0674494 45.4824347,34.4382657 38.8575367,41.0633678 L38.8575367,41.0633678 Z" id="Shape"></path>
            </g>
        </g>
    </g>
</svg>