<?xml version="1.0" encoding="UTF-8"?>
<svg width="86px" height="75px" viewBox="0 0 86 75" version="1.1" xmlns="http://www.w3.org/2000/svg" xmlns:xlink="http://www.w3.org/1999/xlink">
    <!-- Generator: Sketch 43.1 (39012) - http://www.bohemiancoding.com/sketch -->
    <title>home</title>
    <desc>Created with Sketch.</desc>
    <defs></defs>
    <g id="Page-1" stroke="none" stroke-width="1" fill="none" fill-rule="evenodd">
        <g id="Desktop-HD" transform="translate(-27.000000, -129.000000)" fill-rule="nonzero">
            <g id="home" transform="translate(27.000000, 129.000000)">
                <rect id="Rectangle-path" fill="#680B09" x="62.2119816" y="2.86866359" width="13.8248848" height="26.2672811"></rect>
                <rect id="Rectangle-path" fill="#C43D27" x="60.8294931" y="0.103686636" width="16.5898618" height="2.76497696"></rect>
                <g id="Group" transform="translate(0.000000, 55.817972)" fill="#207700">
                    <rect id="Rectangle-path" x="0" y="13.4101382" width="84.3317972" height="5.52995392"></rect>
                    <polygon id="Shape" points="9.67741935 1.38248848 12.4423963 0 15.2073733 1.38248848 15.2073733 16.3133641 12.4423963 17.6958525 9.67741935 16.3133641"></polygon>
                    <polygon id="Shape" points="0 1.38248848 2.76497696 0 5.52995392 1.38248848 5.52995392 16.3133641 2.76497696 17.6958525 0 16.3133641"></polygon>
                </g>
                <rect id="Rectangle-path" fill="#239B02" x="2.76497696" y="62.3156682" width="9.67741935" height="2.76497696"></rect>
                <rect id="Rectangle-path" fill="#FFFFFF" x="19.3548387" y="33.2834101" width="56.6820276" height="38.7096774"></rect>
                <polyline id="Shape" fill="#E8F9FC" points="19.3548387 33.2834101 76.0368664 33.2834101 76.0368664 71.9930876"></polyline>
                <path d="M44.2396313,69.2281106 L44.2396313,43.375576 C44.2396313,42.1313364 43.8248848,41.578341 42.5806452,41.578341 L29.7235023,41.578341 C28.4792627,41.578341 27.6497696,42.2695853 27.6497696,43.375576 L27.6497696,69.2281106 L44.2396313,69.2281106 Z" id="Shape" fill="#FCA12A"></path>
                <path d="M44.2396313,56.7857143 L44.2396313,43.375576 C44.2396313,42.1313364 43.8248848,41.578341 42.5806452,41.578341 L29.7235023,41.578341 C28.4792627,41.578341 27.6497696,42.2695853 27.6497696,43.375576" id="Shape" fill="#E58613"></path>
                <path d="M42.5806452,55.5414747 C42.5806452,56.7857143 41.6129032,57.8917051 40.2304147,57.8917051 C38.9861751,57.8917051 37.8801843,56.9239631 37.8801843,55.5414747 C37.8801843,54.297235 38.8479263,53.1912442 40.2304147,53.1912442 C41.4746544,53.1912442 42.5806452,54.1589862 42.5806452,55.5414747 Z" id="Shape" fill="#DB5435"></path>
                <path d="M41.8894009,53.8824885 C42.8571429,54.7119816 42.718894,56.2327189 41.8894009,57.2004608 C41.0599078,58.1682028 39.5391705,58.0299539 38.5714286,57.2004608" id="Shape" fill="#C43D27"></path>
                <path d="M59.4470046,48.4907834 L67.7419355,48.4907834 L67.7419355,43.375576 C67.7419355,42.1313364 66.359447,41.578341 65.1152074,41.578341 L59.4470046,41.578341 L59.4470046,48.4907834 Z" id="Shape" fill="#0E75AF"></path>
                <path d="M58.0645161,48.4907834 L58.0645161,41.578341 L51.843318,41.578341 C50.5990783,41.578341 49.7695853,42.2695853 49.7695853,43.375576 L49.7695853,48.4907834 L58.0645161,48.4907834 Z" id="Shape" fill="#1EA4C4"></path>
                <path d="M58.0645161,49.8732719 L49.7695853,49.8732719 L49.7695853,55.264977 C49.7695853,56.5092166 50.5990783,56.7857143 51.843318,56.7857143 L58.0645161,56.7857143 L58.0645161,49.8732719 Z" id="Shape" fill="#0E75AF"></path>
                <path d="M59.4470046,49.8732719 L59.4470046,56.7857143 L65.1152074,56.7857143 C66.359447,56.7857143 67.7419355,56.5092166 67.7419355,55.264977 L67.7419355,49.8732719 L59.4470046,49.8732719 Z" id="Shape" fill="#1EA4C4"></path>
                <polygon id="Shape" fill="#C43D27" points="85.5760369 33.2834101 47.6958525 3.69815668 9.95391705 33.2834101"></polygon>
                <polygon id="Shape" fill="#AA1E0F" points="85.5760369 33.2834101 47.6958525 3.69815668 28.4792627 33.2834101"></polygon>
                <g id="Group" transform="translate(20.564516, 13.824885)" fill="#C43D27">
                    <polygon id="Shape" points="0.034562212 11.1635945 54.3663594 11.1635945 50.9101382 8.39861751 3.49078341 8.39861751"></polygon>
                    <polygon id="Shape" points="12.3387097 1.48617512 42.062212 1.48617512 40.264977 0.103686636 14.1359447 0.103686636"></polygon>
                </g>
            </g>
        </g>
    </g>
</svg>