<?xml version="1.0" encoding="UTF-8"?>
<svg width="283px" height="86px" viewBox="0 0 283 86" version="1.1" xmlns="http://www.w3.org/2000/svg" xmlns:xlink="http://www.w3.org/1999/xlink">
    <!-- Generator: Sketch 43.1 (39012) - http://www.bohemiancoding.com/sketch -->
    <title>Logo 2</title>
    <desc>Created with Sketch.</desc>
    <defs></defs>
    <g id="Page-1" stroke="none" stroke-width="1" fill="none" fill-rule="evenodd">
        <g id="Desktop" transform="translate(-126.000000, -297.000000)">
            <g id="Logo-2" transform="translate(126.000000, 297.000000)">
                <g id="Foglie" fill-rule="nonzero">
                    <path d="M70.6414864,0 C76.3655193,17.1355468 70.8352117,30.7547974 52.1827597,36.9869022 C46.2869327,19.3469388 51.9890344,6.23210478 70.6414864,0 Z" id="Shape" fill="#D7DF23"></path>
                    <path d="M53.5425856,79.4632254 C20.9199843,79.4632254 0.919622968,62.0847354 0.919622968,26.5854969 C34.4998849,26.5854969 53.5425856,43.9712973 53.5425856,79.4632254 Z" id="Shape" fill="#8FC33F" transform="translate(27.231104, 53.024361) rotate(-1.000000) translate(-27.231104, -53.024361) "></path>
                    <path d="M54,79 C25.8550107,62.4968017 16.9137984,37.7544928 34.8754188,7.13493756 C63.8318611,24.1242766 71.9616205,48.3804447 54,79 Z" id="Shape" fill="#8FC33F"></path>
                    <path d="M50.5196467,19.1130064 C49.3719159,24.3508986 49.9457813,30.3563814 52.1681389,37.0234542 C54.9680506,36.107097 57.6634497,34.897843 60.2095644,33.4157783 C58.0785867,28.2985075 54.8291197,23.5321352 50.5196467,19.1130064 L50.5196467,19.1130064 Z" id="Shape" fill="#68B745"></path>
                    <path d="M25.8946086,30.7401767 C22.9704539,50.6865672 33.5089857,66.9780688 54,79 C54,53.6073713 43.7758148,37.8275967 25.8946086,30.7401767 Z" id="Shape" fill="#56AA5A"></path>
                </g>
                <path d="M72.9228516,59.0683594 C72.9228516,59.7714879 73.1132793,60.3574195 73.4941406,60.8261719 C73.8750019,61.2949242 74.3818328,61.6962874 75.0146484,62.0302734 C75.6474641,62.3642595 76.3740193,62.6572253 77.1943359,62.9091797 C78.0146525,63.1611341 78.8583941,63.4160143 79.7255859,63.6738281 C80.8388728,64.0136736 81.8759718,64.3828105 82.8369141,64.78125 C83.7978564,65.1796895 84.6298793,65.6630831 85.3330078,66.2314453 C86.0361363,66.7998075 86.5898417,67.4765586 86.9941406,68.2617188 C87.3984395,69.0468789 87.6005859,69.9902289 87.6005859,71.0917969 C87.6005859,72.2636777 87.360354,73.315425 86.8798828,74.2470703 C86.3994117,75.1787156 85.7255903,75.9697233 84.8583984,76.6201172 C83.9912066,77.2705111 82.9482483,77.768553 81.7294922,78.1142578 C80.5107361,78.4599627 79.157234,78.6328125 77.6689453,78.6328125 C76.5556585,78.6328125 75.4980519,78.5390634 74.4960938,78.3515625 C73.4941356,78.1640616 72.5800823,77.903322 71.7539062,77.5693359 C70.9277302,77.2353499 70.2041047,76.8427757 69.5830078,76.3916016 C68.961911,75.9404274 68.4755877,75.4453152 68.1240234,74.90625 C68.030273,74.7304679 67.9833984,74.5312511 67.9833984,74.3085938 C67.9833984,74.0976552 68.030273,73.8808605 68.1240234,73.6582031 C68.2177739,73.4355458 68.3378899,73.2333993 68.484375,73.0517578 C68.6308601,72.8701163 68.794921,72.7207037 68.9765625,72.6035156 C69.158204,72.4863275 69.3369132,72.4277344 69.5126953,72.4277344 C69.7119151,72.4277344 69.9140615,72.4921869 70.1191406,72.6210938 C70.3242198,72.7500006 70.5263662,72.8789056 70.7255859,73.0078125 C71.1005878,73.2539075 71.5312476,73.4970691 72.0175781,73.7373047 C72.5039087,73.9775403 73.0371065,74.1914053 73.6171875,74.3789062 C74.1972685,74.5664072 74.8242154,74.7187494 75.4980469,74.8359375 C76.1718784,74.9531256 76.8837853,75.0117188 77.6337891,75.0117188 C78.3837928,75.0117188 79.0810515,74.941407 79.7255859,74.8007812 C80.3701204,74.6601555 80.9296851,74.4462905 81.4042969,74.1591797 C81.8789086,73.8720689 82.2509752,73.5117209 82.5205078,73.078125 C82.7900404,72.6445291 82.9248047,72.1289092 82.9248047,71.53125 C82.9248047,70.7578086 82.7314472,70.1250025 82.3447266,69.6328125 C81.9580059,69.1406225 81.4482454,68.7216814 80.8154297,68.3759766 C80.182614,68.0302717 79.4619181,67.7373059 78.6533203,67.4970703 C77.8447225,67.2568347 77.0185589,67.0019545 76.1748047,66.7324219 C75.8583969,66.6269526 75.4834006,66.4980476 75.0498047,66.3457031 C74.6162088,66.1933586 74.1796897,66.0263681 73.7402344,65.8447266 C73.3007791,65.663085 72.8847676,65.4755869 72.4921875,65.2822266 C72.0996074,65.0888662 71.7802747,64.9042978 71.5341797,64.7285156 C69.3896377,63.662104 68.3173828,61.8574346 68.3173828,59.3144531 C68.3173828,58.1894475 68.5605444,57.1845747 69.046875,56.2998047 C69.5332056,55.4150346 70.2040973,54.6650421 71.0595703,54.0498047 C71.9150433,53.4345672 72.9228458,52.9658219 74.0830078,52.6435547 C75.2431699,52.3212875 76.5029229,52.1601562 77.8623047,52.1601562 C79.6670012,52.1601562 81.2783132,52.4208958 82.6962891,52.9423828 C84.1142649,53.4638698 85.338862,54.2460885 86.3701172,55.2890625 C86.5224617,55.4531258 86.6279294,55.6259757 86.6865234,55.8076172 C86.7451175,55.9892587 86.7744141,56.1855458 86.7744141,56.3964844 C86.7744141,56.5957041 86.7451175,56.8007802 86.6865234,57.0117188 C86.6279294,57.2226573 86.5341803,57.4160147 86.4052734,57.5917969 C86.2763665,57.767579 86.109376,57.9111323 85.9042969,58.0224609 C85.6992177,58.1337896 85.4501968,58.1894531 85.1572266,58.1894531 C84.8290999,58.1894531 84.459963,58.0136736 84.0498047,57.6621094 C83.7333969,57.439452 83.3642599,57.2138683 82.9423828,56.9853516 C82.5205057,56.7568348 82.0576197,56.5546884 81.5537109,56.3789062 C81.0498022,56.2031241 80.5107451,56.0595709 79.9365234,55.9482422 C79.3623018,55.8369135 78.7587922,55.78125 78.1259766,55.78125 C77.5048797,55.78125 76.8867218,55.8427728 76.2714844,55.9658203 C75.6562469,56.0888678 75.0996119,56.2822252 74.6015625,56.5458984 C74.1035131,56.8095716 73.6992203,57.149412 73.3886719,57.5654297 C73.0781234,57.9814474 72.9228516,58.4824189 72.9228516,59.0683594 Z M100.014648,66.2929688 C100.014648,65.6953095 99.9296883,65.1972676 99.7597656,64.7988281 C99.5898429,64.4003886 99.3525406,64.0781262 99.0478516,63.8320312 C98.7431625,63.5859363 98.3769553,63.4101568 97.9492188,63.3046875 C97.5214822,63.1992182 97.0498073,63.1464844 96.5341797,63.1464844 C95.9482393,63.1464844 95.4150415,63.1787106 94.9345703,63.2431641 C94.4540992,63.3076175 94.0058615,63.3984369 93.5898438,63.515625 C93.173826,63.6328131 92.7841815,63.7646477 92.4208984,63.9111328 C92.0576154,64.0576179 91.7001971,64.2128898 91.3486328,64.3769531 C91.1728507,64.447266 90.9970712,64.4824219 90.8212891,64.4824219 C90.6572257,64.4824219 90.5019539,64.4501956 90.3554688,64.3857422 C90.2089836,64.3212887 90.0800787,64.233399 89.96875,64.1220703 C89.8574213,64.0107416 89.7695316,63.8818367 89.7050781,63.7353516 C89.6406247,63.5888665 89.6083984,63.4394539 89.6083984,63.2871094 C89.6083984,63.1582025 89.628906,63.0439458 89.6699219,62.9443359 C89.7109377,62.8447261 89.7724605,62.7304694 89.8544922,62.6015625 C90.416995,61.7578083 91.2900331,61.1455097 92.4736328,60.7646484 C93.6572325,60.3837872 95.0869057,60.1933594 96.7626953,60.1933594 C97.7822317,60.1933594 98.7285113,60.3105457 99.6015625,60.5449219 C100.474614,60.779298 101.227536,61.1513646 101.860352,61.6611328 C102.493167,62.170901 102.988279,62.8330037 103.345703,63.6474609 C103.703127,64.4619181 103.881836,65.4492129 103.881836,66.609375 L103.881836,76.1894531 C103.870117,76.4941421 103.808594,76.7578114 103.697266,76.9804688 C103.585937,77.2031261 103.439454,77.3906242 103.257812,77.5429688 C103.076171,77.6953133 102.871095,77.8095699 102.642578,77.8857422 C102.414061,77.9619144 102.182618,78 101.948242,78 C101.725585,78 101.50586,77.9648441 101.289062,77.8945312 C101.072265,77.8242184 100.878907,77.7187507 100.708984,77.578125 C100.539062,77.4374993 100.401368,77.2617198 100.295898,77.0507812 C100.190429,76.8398427 100.131836,76.5937514 100.120117,76.3125 L100.120117,74.9941406 C99.8740222,75.4160177 99.5488301,75.8408182 99.1445312,76.2685547 C98.7402324,76.6962912 98.2773464,77.0537095 97.7558594,77.3408203 C97.2343724,77.6279311 96.680667,77.8447258 96.0947266,77.9912109 C95.5087861,78.137696 94.9169952,78.2109375 94.3193359,78.2109375 C93.4755817,78.2109375 92.6875037,78.0937512 91.9550781,77.859375 C91.2226526,77.6249988 90.5898464,77.2851585 90.0566406,76.8398438 C89.5234348,76.394529 89.1044937,75.8437533 88.7998047,75.1875 C88.4951157,74.5312467 88.3427734,73.8574253 88.3427734,73.1660156 C88.3427734,72.0878852 88.5742164,71.1709022 89.0371094,70.4150391 C89.5000023,69.6591759 90.1621051,69.0439477 91.0234375,68.5693359 C91.8847699,68.0947242 92.9247986,67.7519542 94.1435547,67.5410156 C95.3623108,67.3300771 96.7275315,67.2246094 98.2392578,67.2246094 C98.473634,67.2246094 98.7636701,67.227539 99.109375,67.2333984 C99.4550799,67.2392578 99.7568346,67.2480468 100.014648,67.2597656 L100.014648,66.2929688 Z M99.9970703,69.5625 C99.9033198,69.5625 99.7890632,69.5654297 99.6542969,69.5712891 C99.5195306,69.5771485 99.378907,69.5800781 99.2324219,69.5800781 L98.3974609,69.5800781 C97.659176,69.5800781 96.9209021,69.6210933 96.1826172,69.703125 C95.4443322,69.7851567 94.7792998,69.9462879 94.1875,70.1865234 C93.5957002,70.426759 93.1152362,70.7665994 92.7460938,71.2060547 C92.3769513,71.64551 92.1923828,72.2167934 92.1923828,72.9199219 C92.1923828,73.2714861 92.2802726,73.6347638 92.4560547,74.0097656 C92.6318368,74.3847675 92.8691391,74.6953113 93.1679688,74.9414062 C93.4667984,75.1875012 93.821287,75.3720697 94.2314453,75.4951172 C94.6416036,75.6181647 95.0810523,75.6855468 95.5498047,75.6972656 C96.1709015,75.6855468 96.7480442,75.5742198 97.28125,75.3632812 C97.8144558,75.1523427 98.2802714,74.8388693 98.6787109,74.4228516 C99.0771504,74.0068339 99.3906239,73.5292996 99.6191406,72.9902344 C99.8476574,72.4511692 99.9736327,71.7773478 99.9970703,70.96875 L99.9970703,69.5625 Z M112.25293,63.0234375 L112.25293,75.9785156 C112.25293,76.3183611 112.194337,76.6142566 112.077148,76.8662109 C111.95996,77.1181653 111.804688,77.3291007 111.611328,77.4990234 C111.417968,77.6689462 111.195314,77.7949215 110.943359,77.8769531 C110.691405,77.9589848 110.436525,78 110.178711,78 C109.920897,78 109.668947,77.9589848 109.422852,77.8769531 C109.176757,77.7949215 108.957032,77.6689462 108.763672,77.4990234 C108.570312,77.3291007 108.41504,77.1181653 108.297852,76.8662109 C108.180663,76.6142566 108.12207,76.3183611 108.12207,75.9785156 L108.12207,63.0234375 L106.241211,63.0234375 C105.749021,63.0234375 105.382814,62.8886732 105.142578,62.6191406 C104.902343,62.349608 104.782227,62.0449236 104.782227,61.7050781 C104.782227,61.3769515 104.902343,61.0781263 105.142578,60.8085938 C105.382814,60.5390612 105.749021,60.4042969 106.241211,60.4042969 L108.12207,60.4042969 L108.12207,58.8574219 C108.12207,57.6621034 108.236327,56.6513713 108.464844,55.8251953 C108.693361,54.9990193 109.027342,54.3310572 109.466797,53.8212891 C109.906252,53.3115209 110.445309,52.942384 111.083984,52.7138672 C111.722659,52.4853504 112.458004,52.3710938 113.290039,52.3710938 C113.782229,52.3710938 114.280271,52.4062496 114.78418,52.4765625 C115.288088,52.5468754 115.780271,52.6464837 116.260742,52.7753906 C116.588869,52.8691411 116.829101,53.0390613 116.981445,53.2851562 C117.13379,53.5312512 117.209961,53.8007798 117.209961,54.09375 C117.209961,54.2695321 117.183594,54.4394523 117.130859,54.6035156 C117.078125,54.7675789 117.001954,54.9140619 116.902344,55.0429688 C116.802734,55.1718756 116.676759,55.2744137 116.524414,55.3505859 C116.37207,55.4267582 116.19629,55.4648438 115.99707,55.4648438 C115.692381,55.4648438 115.428712,55.4443361 115.206055,55.4033203 C114.983397,55.3623045 114.754884,55.3417969 114.520508,55.3417969 C114.028318,55.3417969 113.632814,55.409179 113.333984,55.5439453 C113.035155,55.6787116 112.806641,55.9160139 112.648438,56.2558594 C112.490234,56.5957048 112.384766,57.0615205 112.332031,57.6533203 C112.279297,58.2451201 112.25293,58.9980423 112.25293,59.9121094 L112.25293,60.4042969 L114.749023,60.4042969 C115.241213,60.4042969 115.607421,60.5390612 115.847656,60.8085938 C116.087892,61.0781263 116.208008,61.3769515 116.208008,61.7050781 C116.208008,62.0449236 116.087892,62.349608 115.847656,62.6191406 C115.607421,62.8886732 115.241213,63.0234375 114.749023,63.0234375 L112.25293,63.0234375 Z M132.805664,68.6308594 C132.805664,68.9472672 132.703126,69.2255847 132.498047,69.4658203 C132.292968,69.7060559 131.979494,69.8261719 131.557617,69.8261719 L119.586914,69.8261719 C119.692383,71.5253991 120.216792,72.8437453 121.160156,73.78125 C122.10352,74.7187547 123.348625,75.1875 124.895508,75.1875 C125.844731,75.1875 126.741207,75.0527357 127.584961,74.7832031 C128.428715,74.5136705 129.290035,74.1562522 130.168945,73.7109375 C130.379884,73.6054682 130.579101,73.5527344 130.766602,73.5527344 C131.083009,73.5527344 131.33789,73.6699207 131.53125,73.9042969 C131.72461,74.138673 131.821289,74.4082016 131.821289,74.7128906 C131.821289,74.8417975 131.800781,74.9794915 131.759766,75.1259766 C131.71875,75.2724617 131.651368,75.4101556 131.557617,75.5390625 C131.182615,76.0195337 130.722659,76.4296858 130.177734,76.7695312 C129.63281,77.1093767 129.043948,77.3847646 128.411133,77.5957031 C127.778317,77.8066417 127.125003,77.9619136 126.451172,78.0615234 C125.77734,78.1611333 125.124027,78.2109375 124.491211,78.2109375 C123.213861,78.2109375 122.02442,78.0000021 120.922852,77.578125 C119.821284,77.1562479 118.863285,76.5439493 118.048828,75.7412109 C117.234371,74.9384725 116.595705,73.9482481 116.132812,72.7705078 C115.66992,71.5927675 115.438477,70.3769594 115.438477,69.1230469 C115.438477,68.0566353 115.655271,66.9726618 116.088867,65.8710938 C116.522463,64.7695257 117.117184,63.8085979 117.873047,62.9882812 C118.62891,62.1679646 119.537104,61.4970729 120.597656,60.9755859 C121.658208,60.454099 122.891595,60.1933594 124.297852,60.1933594 C125.739265,60.1933594 126.98437,60.4218727 128.033203,60.8789062 C129.082036,61.3359398 129.955075,61.9453087 130.652344,62.7070312 C131.349613,63.4687538 131.876951,64.3798775 132.234375,65.4404297 C132.591799,66.5009819 132.782226,67.5644478 132.805664,68.6308594 Z M129.149414,67.7167969 C129.102539,67.1542941 128.967775,66.5566438 128.745117,65.9238281 C128.52246,65.2910125 128.208986,64.7490257 127.804688,64.2978516 C127.400389,63.8466774 126.908206,63.5068371 126.328125,63.2783203 C125.748044,63.0498035 125.083012,62.9355469 124.333008,62.9355469 C123.653317,62.9355469 123.035159,63.0585925 122.478516,63.3046875 C121.921872,63.5507825 121.441408,63.9082008 121.037109,64.3769531 C120.63281,64.8457055 120.307618,65.3906219 120.061523,66.0117188 C119.815428,66.6328156 119.668946,67.2011693 119.62207,67.7167969 L129.149414,67.7167969 Z M136.272461,60.4042969 L136.606445,55.6757812 C136.629883,55.4179675 136.703124,55.1865245 136.826172,54.9814453 C136.949219,54.7763662 137.104491,54.6035163 137.291992,54.4628906 C137.479493,54.3222649 137.684569,54.2167972 137.907227,54.1464844 C138.129884,54.0761715 138.352538,54.0410156 138.575195,54.0410156 C138.997072,54.0410156 139.372069,54.1699206 139.700195,54.4277344 C140.028322,54.6855482 140.192383,55.089841 140.192383,55.640625 L140.192383,60.4042969 L142.881836,60.4042969 C143.362307,60.4042969 143.725585,60.5537094 143.97168,60.8525391 C144.217775,61.1513687 144.34082,61.4765607 144.34082,61.828125 C144.34082,62.1796893 144.220704,62.5019517 143.980469,62.7949219 C143.740233,63.0878921 143.374026,63.234375 142.881836,63.234375 L140.192383,63.234375 L140.192383,70.546875 C140.192383,71.3789104 140.207031,72.0820284 140.236328,72.65625 C140.265625,73.2304716 140.341796,73.6962873 140.464844,74.0537109 C140.587891,74.4111346 140.781249,74.6689445 141.044922,74.8271484 C141.308595,74.9853524 141.674802,75.0644531 142.143555,75.0644531 C142.260743,75.0644531 142.389648,75.0585938 142.530273,75.046875 C142.670899,75.0351562 142.811523,75.0205079 142.952148,75.0029297 C143.092774,74.9853515 143.224609,74.9707032 143.347656,74.9589844 C143.470704,74.9472656 143.567382,74.9414062 143.637695,74.9414062 C144.08301,74.9414062 144.42871,75.0878892 144.674805,75.3808594 C144.9209,75.6738296 145.043945,76.0019513 145.043945,76.3652344 C145.043945,76.7402362 144.929689,77.0449207 144.701172,77.2792969 C144.472655,77.513673 144.17383,77.7011712 143.804688,77.8417969 C143.435545,77.9824226 143.022463,78.0791013 142.56543,78.1318359 C142.108396,78.1845706 141.64551,78.2109375 141.176758,78.2109375 C140.356441,78.2109375 139.629886,78.1054698 138.99707,77.8945312 C138.364255,77.6835927 137.831057,77.3349634 137.397461,76.8486328 C136.963865,76.3623023 136.632814,75.7207071 136.404297,74.9238281 C136.17578,74.1269491 136.061523,73.1484433 136.061523,71.9882812 L136.061523,63.234375 L134.356445,63.234375 C133.864255,63.234375 133.498048,63.0878921 133.257812,62.7949219 C133.017577,62.5019517 132.897461,62.1796893 132.897461,61.828125 C132.897461,61.4765607 133.020507,61.1513687 133.266602,60.8525391 C133.512697,60.5537094 133.881833,60.4042969 134.374023,60.4042969 L136.272461,60.4042969 Z M151.305664,77.8066406 L144.854492,62.9355469 C144.795898,62.80664 144.754883,62.6806647 144.731445,62.5576172 C144.708008,62.4345697 144.696289,62.3144537 144.696289,62.1972656 C144.696289,61.9394518 144.754882,61.6992199 144.87207,61.4765625 C144.989258,61.2539051 145.14453,61.0634774 145.337891,60.9052734 C145.531251,60.7470695 145.748046,60.6240239 145.988281,60.5361328 C146.228517,60.4482417 146.477538,60.4042969 146.735352,60.4042969 C147.098635,60.4042969 147.438475,60.5009756 147.754883,60.6943359 C148.071291,60.8876963 148.317382,61.207029 148.493164,61.6523438 L153.256836,73.7636719 L158.09082,61.6347656 C158.231446,61.2011697 158.4541,60.8876963 158.758789,60.6943359 C159.063478,60.5009756 159.38574,60.4042969 159.725586,60.4042969 C159.971681,60.4042969 160.208983,60.4482417 160.4375,60.5361328 C160.666017,60.6240239 160.874022,60.7470695 161.061523,60.9052734 C161.249024,61.0634774 161.398437,61.2539051 161.509766,61.4765625 C161.621094,61.6992199 161.676758,61.9453112 161.676758,62.2148438 C161.676758,62.320313 161.667969,62.4345697 161.650391,62.5576172 C161.632812,62.6806647 161.600586,62.8007807 161.553711,62.9179688 L153.098633,83.8535156 C152.922851,84.322268 152.6709,84.6591787 152.342773,84.8642578 C152.014647,85.069337 151.663088,85.171875 151.288086,85.171875 C151.041991,85.171875 150.798829,85.1279301 150.558594,85.0400391 C150.318358,84.952148 150.104493,84.8261727 149.916992,84.6621094 C149.729491,84.4980461 149.577149,84.3046886 149.459961,84.0820312 C149.342773,83.8593739 149.28418,83.6074233 149.28418,83.3261719 C149.295898,83.2324214 149.307617,83.1269537 149.319336,83.0097656 C149.331055,82.8925775 149.360351,82.7753912 149.407227,82.6582031 L151.305664,77.8066406 Z M172.354492,54.9726562 C172.354492,54.6562484 172.413085,54.3632826 172.530273,54.09375 C172.647462,53.8242174 172.808593,53.5869151 173.013672,53.3818359 C173.218751,53.1767568 173.458983,53.0156256 173.734375,52.8984375 C174.009767,52.7812494 174.305662,52.7226562 174.62207,52.7226562 L183.499023,52.7402344 C184.600591,52.7402344 185.617183,52.8984359 186.548828,53.2148438 C187.480473,53.5312516 188.2832,53.9677707 188.957031,54.5244141 C189.630863,55.0810575 190.155272,55.7460899 190.530273,56.5195312 C190.905275,57.2929726 191.092773,58.1425735 191.092773,59.0683594 C191.092773,59.7597691 190.972657,60.4189422 190.732422,61.0458984 C190.492186,61.6728547 190.155276,62.2382787 189.72168,62.7421875 C189.288084,63.2460963 188.775394,63.676756 188.183594,64.0341797 C187.591794,64.3916033 186.93848,64.6406243 186.223633,64.78125 L186.223633,64.8515625 C187.102543,64.9804694 187.89941,65.2207014 188.614258,65.5722656 C189.329105,65.9238299 189.938474,66.3691379 190.442383,66.9082031 C190.946292,67.4472683 191.335936,68.0683559 191.611328,68.7714844 C191.88672,69.4746129 192.024414,70.2480427 192.024414,71.0917969 C192.024414,71.9355511 191.872072,72.7705037 191.567383,73.5966797 C191.262694,74.4228557 190.773441,75.1611296 190.099609,75.8115234 C189.425778,76.4619173 188.558599,76.9892558 187.498047,77.3935547 C186.437495,77.7978536 185.151375,78 183.639648,78 L174.62207,78 C174.305662,78 174.009767,77.9414068 173.734375,77.8242188 C173.458983,77.7070307 173.218751,77.5488291 173.013672,77.3496094 C172.808593,77.1503896 172.647462,76.9130873 172.530273,76.6376953 C172.413085,76.3623033 172.354492,76.0722671 172.354492,75.7675781 L172.354492,54.9726562 Z M176.889648,74.8886719 L181.319336,74.8886719 C182.291997,74.8886719 183.150387,74.8212897 183.894531,74.6865234 C184.638676,74.5517571 185.265622,74.3203141 185.775391,73.9921875 C186.285159,73.6640609 186.668944,73.2216825 186.926758,72.6650391 C187.184572,72.1083957 187.313477,71.4140667 187.313477,70.5820312 C187.313477,69.7031206 187.143556,68.9912137 186.803711,68.4462891 C186.463865,67.9013645 185.986331,67.476564 185.371094,67.171875 C184.755856,66.867186 184.017582,66.6591802 183.15625,66.5478516 C182.294918,66.4365229 181.348638,66.3808594 180.317383,66.3808594 L176.889648,66.3808594 L176.889648,74.8886719 Z M176.889648,55.8515625 L176.889648,63.6738281 L181.249023,63.6738281 C181.952152,63.6738281 182.620114,63.6005867 183.25293,63.4541016 C183.885745,63.3076165 184.436521,63.0732438 184.905273,62.7509766 C185.374026,62.4287093 185.746092,62.0156275 186.021484,61.5117188 C186.296876,61.00781 186.43457,60.3984411 186.43457,59.6835938 C186.43457,58.9101524 186.288087,58.2773462 185.995117,57.7851562 C185.702147,57.2929663 185.312502,56.9033217 184.826172,56.6162109 C184.339841,56.3291001 183.780277,56.1298834 183.147461,56.0185547 C182.514645,55.907226 181.852543,55.8515625 181.161133,55.8515625 L176.889648,55.8515625 Z M194.700195,62.4433594 C194.700195,62.1035139 194.758788,61.8076184 194.875977,61.5556641 C194.993165,61.3037097 195.148437,61.0927743 195.341797,60.9228516 C195.535157,60.7529288 195.757811,60.6240239 196.009766,60.5361328 C196.26172,60.4482417 196.5166,60.4042969 196.774414,60.4042969 C197.032228,60.4042969 197.284178,60.4482417 197.530273,60.5361328 C197.776368,60.6240239 197.996093,60.7529288 198.189453,60.9228516 C198.382813,61.0927743 198.538085,61.3037097 198.655273,61.5556641 C198.772462,61.8076184 198.831055,62.1035139 198.831055,62.4433594 L198.831055,75.9609375 C198.831055,76.3007829 198.769532,76.5966784 198.646484,76.8486328 C198.523437,77.1005872 198.365235,77.3115226 198.171875,77.4814453 C197.978515,77.651368 197.755861,77.780273 197.503906,77.8681641 C197.251952,77.9560551 196.997072,78 196.739258,78 C196.481444,78 196.229493,77.9589848 195.983398,77.8769531 C195.737303,77.7949215 195.520509,77.6689462 195.333008,77.4990234 C195.145507,77.3291007 194.993165,77.1152357 194.875977,76.8574219 C194.758788,76.5996081 194.700195,76.3007829 194.700195,75.9609375 L194.700195,62.4433594 Z M200.645508,69.2285156 C200.645508,68.1503852 200.833006,67.0517634 201.208008,65.9326172 C201.58301,64.813471 202.151363,63.8291058 202.913086,62.9794922 C203.674808,62.1298786 204.632807,61.4531275 205.787109,60.9492188 C206.941412,60.44531 208.297844,60.1933594 209.856445,60.1933594 C211.415047,60.1933594 212.771479,60.44531 213.925781,60.9492188 C215.080084,61.4531275 216.041012,62.1298786 216.808594,62.9794922 C217.576176,63.8291058 218.147459,64.813471 218.522461,65.9326172 C218.897463,67.0517634 219.084961,68.1503852 219.084961,69.2285156 C219.084961,70.2949272 218.897463,71.3818304 218.522461,72.4892578 C218.147459,73.5966852 217.576176,74.5751911 216.808594,75.4248047 C216.041012,76.2744183 215.080084,76.9511694 213.925781,77.4550781 C212.771479,77.9589869 211.415047,78.2109375 209.856445,78.2109375 C208.297844,78.2109375 206.941412,77.9589869 205.787109,77.4550781 C204.632807,76.9511694 203.674808,76.2744183 202.913086,75.4248047 C202.151363,74.5751911 201.58301,73.5966852 201.208008,72.4892578 C200.833006,71.3818304 200.645508,70.2949272 200.645508,69.2285156 Z M204.987305,69.2285156 C204.987305,69.9199253 205.078124,70.6552695 205.259766,71.4345703 C205.441407,72.2138711 205.728514,72.9052704 206.121094,73.5087891 C206.513674,74.1123077 207.017575,74.5957013 207.632812,74.9589844 C208.24805,75.3222674 208.989253,75.5039062 209.856445,75.5039062 C210.723637,75.5039062 211.464841,75.3222674 212.080078,74.9589844 C212.695316,74.5957013 213.199217,74.1123077 213.591797,73.5087891 C213.984377,72.9052704 214.271483,72.2138711 214.453125,71.4345703 C214.634767,70.6552695 214.725586,69.9199253 214.725586,69.2285156 C214.725586,68.5371059 214.634767,67.8017617 214.453125,67.0224609 C214.271483,66.2431602 213.984377,65.5488312 213.591797,64.9394531 C213.199217,64.3300751 212.695316,63.8437518 212.080078,63.4804688 C211.464841,63.1171857 210.723637,62.9355469 209.856445,62.9355469 C208.989253,62.9355469 208.24805,63.1171857 207.632812,63.4804688 C207.017575,63.8437518 206.513674,64.3300751 206.121094,64.9394531 C205.728514,65.5488312 205.441407,66.2431602 205.259766,67.0224609 C205.078124,67.8017617 204.987305,68.5371059 204.987305,69.2285156 Z M232.733398,78 C232.416991,78 232.115236,77.9384772 231.828125,77.8154297 C231.541014,77.6923822 231.289064,77.5253917 231.072266,77.3144531 C230.855468,77.1035146 230.682618,76.8574233 230.553711,76.5761719 C230.424804,76.2949205 230.360352,75.990236 230.360352,75.6621094 L230.360352,55.0253906 C230.360352,54.6503887 230.427734,54.3193374 230.5625,54.0322266 C230.697266,53.7451158 230.875975,53.5078134 231.098633,53.3203125 C231.32129,53.1328116 231.573241,52.992188 231.854492,52.8984375 C232.135744,52.804687 232.428709,52.7578125 232.733398,52.7578125 C233.026369,52.7578125 233.313475,52.804687 233.594727,52.8984375 C233.875978,52.992188 234.127929,53.1328116 234.350586,53.3203125 C234.573243,53.5078134 234.751952,53.7451158 234.886719,54.0322266 C235.021485,54.3193374 235.088867,54.6503887 235.088867,55.0253906 L235.088867,74.4492188 L245.249023,74.4492188 C245.541994,74.4492188 245.799804,74.5019526 246.022461,74.6074219 C246.245118,74.7128912 246.429687,74.8476554 246.576172,75.0117188 C246.722657,75.1757821 246.833984,75.3632802 246.910156,75.5742188 C246.986329,75.7851573 247.024414,76.001952 247.024414,76.2246094 C247.024414,76.4472667 246.986329,76.6640614 246.910156,76.875 C246.833984,77.0859386 246.722657,77.2763663 246.576172,77.4462891 C246.429687,77.6162118 246.245118,77.7509761 246.022461,77.8505859 C245.799804,77.9501958 245.541994,78 245.249023,78 L232.733398,78 Z M248.311523,62.4433594 C248.311523,62.1035139 248.370117,61.8076184 248.487305,61.5556641 C248.604493,61.3037097 248.759765,61.0927743 248.953125,60.9228516 C249.146485,60.7529288 249.369139,60.6240239 249.621094,60.5361328 C249.873048,60.4482417 250.127928,60.4042969 250.385742,60.4042969 C250.643556,60.4042969 250.895507,60.4482417 251.141602,60.5361328 C251.387697,60.6240239 251.607421,60.7529288 251.800781,60.9228516 C251.994142,61.0927743 252.149413,61.3037097 252.266602,61.5556641 C252.38379,61.8076184 252.442383,62.1035139 252.442383,62.4433594 L252.442383,75.9609375 C252.442383,76.3007829 252.38086,76.5966784 252.257812,76.8486328 C252.134765,77.1005872 251.976563,77.3115226 251.783203,77.4814453 C251.589843,77.651368 251.367189,77.780273 251.115234,77.8681641 C250.86328,77.9560551 250.6084,78 250.350586,78 C250.092772,78 249.840822,77.9589848 249.594727,77.8769531 C249.348632,77.7949215 249.131837,77.6689462 248.944336,77.4990234 C248.756835,77.3291007 248.604493,77.1152357 248.487305,76.8574219 C248.370117,76.5996081 248.311523,76.3007829 248.311523,75.9609375 L248.311523,62.4433594 Z M260.883789,63.0234375 L260.883789,75.9785156 C260.883789,76.3183611 260.825196,76.6142566 260.708008,76.8662109 C260.59082,77.1181653 260.435548,77.3291007 260.242188,77.4990234 C260.048827,77.6689462 259.826173,77.7949215 259.574219,77.8769531 C259.322264,77.9589848 259.067384,78 258.80957,78 C258.551757,78 258.299806,77.9589848 258.053711,77.8769531 C257.807616,77.7949215 257.587892,77.6689462 257.394531,77.4990234 C257.201171,77.3291007 257.045899,77.1181653 256.928711,76.8662109 C256.811523,76.6142566 256.75293,76.3183611 256.75293,75.9785156 L256.75293,63.0234375 L254.87207,63.0234375 C254.37988,63.0234375 254.013673,62.8886732 253.773438,62.6191406 C253.533202,62.349608 253.413086,62.0449236 253.413086,61.7050781 C253.413086,61.3769515 253.533202,61.0781263 253.773438,60.8085938 C254.013673,60.5390612 254.37988,60.4042969 254.87207,60.4042969 L256.75293,60.4042969 L256.75293,58.8574219 C256.75293,57.6621034 256.867186,56.6513713 257.095703,55.8251953 C257.32422,54.9990193 257.658201,54.3310572 258.097656,53.8212891 C258.537112,53.3115209 259.076169,52.942384 259.714844,52.7138672 C260.353519,52.4853504 261.088863,52.3710938 261.920898,52.3710938 C262.413088,52.3710938 262.91113,52.4062496 263.415039,52.4765625 C263.918948,52.5468754 264.41113,52.6464837 264.891602,52.7753906 C265.219728,52.8691411 265.45996,53.0390613 265.612305,53.2851562 C265.764649,53.5312512 265.84082,53.8007798 265.84082,54.09375 C265.84082,54.2695321 265.814453,54.4394523 265.761719,54.6035156 C265.708984,54.7675789 265.632813,54.9140619 265.533203,55.0429688 C265.433593,55.1718756 265.307618,55.2744137 265.155273,55.3505859 C265.002929,55.4267582 264.827149,55.4648438 264.62793,55.4648438 C264.323241,55.4648438 264.059571,55.4443361 263.836914,55.4033203 C263.614257,55.3623045 263.385743,55.3417969 263.151367,55.3417969 C262.659177,55.3417969 262.263673,55.409179 261.964844,55.5439453 C261.666014,55.6787116 261.437501,55.9160139 261.279297,56.2558594 C261.121093,56.5957048 261.015625,57.0615205 260.962891,57.6533203 C260.910156,58.2451201 260.883789,58.9980423 260.883789,59.9121094 L260.883789,60.4042969 L263.379883,60.4042969 C263.872073,60.4042969 264.23828,60.5390612 264.478516,60.8085938 C264.718751,61.0781263 264.838867,61.3769515 264.838867,61.7050781 C264.838867,62.0449236 264.718751,62.349608 264.478516,62.6191406 C264.23828,62.8886732 263.872073,63.0234375 263.379883,63.0234375 L260.883789,63.0234375 Z M282.438477,68.6308594 C282.438477,68.9472672 282.335939,69.2255847 282.130859,69.4658203 C281.92578,69.7060559 281.612307,69.8261719 281.19043,69.8261719 L269.219727,69.8261719 C269.325196,71.5253991 269.849605,72.8437453 270.792969,73.78125 C271.736333,74.7187547 272.981438,75.1875 274.52832,75.1875 C275.477544,75.1875 276.374019,75.0527357 277.217773,74.7832031 C278.061528,74.5136705 278.922847,74.1562522 279.801758,73.7109375 C280.012696,73.6054682 280.211913,73.5527344 280.399414,73.5527344 C280.715822,73.5527344 280.970702,73.6699207 281.164062,73.9042969 C281.357423,74.138673 281.454102,74.4082016 281.454102,74.7128906 C281.454102,74.8417975 281.433594,74.9794915 281.392578,75.1259766 C281.351562,75.2724617 281.28418,75.4101556 281.19043,75.5390625 C280.815428,76.0195337 280.355471,76.4296858 279.810547,76.7695312 C279.265622,77.1093767 278.676761,77.3847646 278.043945,77.5957031 C277.41113,77.8066417 276.757816,77.9619136 276.083984,78.0615234 C275.410153,78.1611333 274.756839,78.2109375 274.124023,78.2109375 C272.846673,78.2109375 271.657232,78.0000021 270.555664,77.578125 C269.454096,77.1562479 268.496098,76.5439493 267.681641,75.7412109 C266.867183,74.9384725 266.228518,73.9482481 265.765625,72.7705078 C265.302732,71.5927675 265.071289,70.3769594 265.071289,69.1230469 C265.071289,68.0566353 265.288084,66.9726618 265.72168,65.8710938 C266.155276,64.7695257 266.749996,63.8085979 267.505859,62.9882812 C268.261723,62.1679646 269.169917,61.4970729 270.230469,60.9755859 C271.291021,60.454099 272.524407,60.1933594 273.930664,60.1933594 C275.372078,60.1933594 276.617182,60.4218727 277.666016,60.8789062 C278.714849,61.3359398 279.587887,61.9453087 280.285156,62.7070312 C280.982425,63.4687538 281.509764,64.3798775 281.867188,65.4404297 C282.224611,66.5009819 282.415039,67.5644478 282.438477,68.6308594 Z M278.782227,67.7167969 C278.735351,67.1542941 278.600587,66.5566438 278.37793,65.9238281 C278.155272,65.2910125 277.841799,64.7490257 277.4375,64.2978516 C277.033201,63.8466774 276.541019,63.5068371 275.960938,63.2783203 C275.380856,63.0498035 274.715824,62.9355469 273.96582,62.9355469 C273.286129,62.9355469 272.667972,63.0585925 272.111328,63.3046875 C271.554685,63.5507825 271.074221,63.9082008 270.669922,64.3769531 C270.265623,64.8457055 269.940431,65.3906219 269.694336,66.0117188 C269.448241,66.6328156 269.301758,67.2011693 269.254883,67.7167969 L278.782227,67.7167969 Z" id="Safety-Bio-Life" fill="#57AF3A"></path>
                <path d="M202.21098,45 C204.06808,50.5594426 202.273832,54.9780611 196.222246,57 C194.309409,51.2769048 196.159394,47.0219389 202.21098,45 Z" id="Shape" fill="#D7DF23" fill-rule="nonzero"></path>
                <path d="M255.71098,45 C257.56808,50.5594426 255.773832,54.9780611 249.722246,57 C247.809409,51.2769048 249.659394,47.0219389 255.71098,45 Z" id="Shape" fill="#D7DF23" fill-rule="nonzero"></path>
            </g>
        </g>
    </g>
</svg>