<?xml version="1.0" encoding="UTF-8"?>
<svg width="70px" height="75px" viewBox="0 0 70 75" version="1.1" xmlns="http://www.w3.org/2000/svg" xmlns:xlink="http://www.w3.org/1999/xlink">
    <!-- Generator: Sketch 43.1 (39012) - http://www.bohemiancoding.com/sketch -->
    <title>office-material</title>
    <desc>Created with Sketch.</desc>
    <defs></defs>
    <g id="Page-1" stroke="none" stroke-width="1" fill="none" fill-rule="evenodd">
        <g id="Desktop-HD" transform="translate(-35.000000, -254.000000)" fill-rule="nonzero">
            <g id="office-material" transform="translate(35.000000, 254.000000)">
                <path d="M44.7080566,75 L25.3114746,75 C24.2402344,75 23.371875,74.1314941 23.371875,73.0604004 L23.371875,1.93959961 C23.371875,0.868505859 24.2403809,0 25.3114746,0 L44.7080566,0 C45.7792969,0 46.6476562,0.868505859 46.6476562,1.93959961 L46.6476562,73.0602539 C46.6476562,74.1314941 45.7791504,75 44.7080566,75 Z" id="Shape" fill="#FFD782"></path>
                <path d="M41.475293,45.2586914 L28.5442383,45.2586914 C27.830127,45.2586914 27.2510742,44.6796387 27.2510742,43.9655273 L27.2510742,11.6378906 C27.2510742,10.9237793 27.830127,10.3447266 28.5442383,10.3447266 L41.475293,10.3447266 C42.1894043,10.3447266 42.768457,10.9237793 42.768457,11.6378906 L42.768457,43.9655273 C42.768457,44.6796387 42.1894043,45.2586914 41.475293,45.2586914 Z" id="Shape" fill="#EFF2FA"></path>
                <g id="Group" transform="translate(29.736328, 19.335938)" fill="#D7DEED">
                    <path d="M9.1527832,2.64682617 L1.3940918,2.64682617 C0.679980469,2.64682617 0.100927734,2.06777344 0.100927734,1.35366211 C0.100927734,0.639550781 0.679980469,0.0604980469 1.3940918,0.0604980469 L9.1527832,0.0604980469 C9.86689453,0.0604980469 10.4459473,0.639550781 10.4459473,1.35366211 C10.4459473,2.06777344 9.86689453,2.64682617 9.1527832,2.64682617 Z" id="Shape"></path>
                    <path d="M9.1527832,7.81918945 L1.3940918,7.81918945 C0.679980469,7.81918945 0.100927734,7.24013672 0.100927734,6.52602539 C0.100927734,5.81191406 0.679980469,5.23286133 1.3940918,5.23286133 L9.1527832,5.23286133 C9.86689453,5.23286133 10.4459473,5.81191406 10.4459473,6.52602539 C10.4459473,7.24013672 9.86689453,7.81918945 9.1527832,7.81918945 Z" id="Shape"></path>
                    <path d="M9.1527832,12.9916992 L1.3940918,12.9916992 C0.679980469,12.9916992 0.100927734,12.4126465 0.100927734,11.6985352 C0.100927734,10.9844238 0.679980469,10.4053711 1.3940918,10.4053711 L9.1527832,10.4053711 C9.86689453,10.4053711 10.4459473,10.9844238 10.4459473,11.6985352 C10.4458008,12.4126465 9.86689453,12.9916992 9.1527832,12.9916992 Z" id="Shape"></path>
                    <path d="M9.1527832,23.3364258 L1.3940918,23.3364258 C0.679980469,23.3364258 0.100927734,22.757373 0.100927734,22.0432617 C0.100927734,21.3291504 0.679980469,20.7500977 1.3940918,20.7500977 L9.1527832,20.7500977 C9.86689453,20.7500977 10.4459473,21.3291504 10.4459473,22.0432617 C10.4459473,22.757373 9.86689453,23.3364258 9.1527832,23.3364258 Z" id="Shape"></path>
                </g>
                <g id="Group" transform="translate(27.246094, 8.935547)" fill="#C7CFE2">
                    <rect id="Rectangle-path" x="0.00498046875" y="25.9782715" width="15.5172363" height="2.58618164"></rect>
                    <path d="M15.5223633,6.58168945 L0.00498046875,6.58168945 L0.00498046875,1.40932617 C0.00498046875,0.695214844 0.584033203,0.116162109 1.29814453,0.116162109 L14.2291992,0.116162109 C14.9433105,0.116162109 15.5223633,0.695214844 15.5223633,1.40932617 L15.5223633,6.58168945 L15.5223633,6.58168945 Z" id="Shape"></path>
                </g>
                <ellipse id="Oval" fill="#464655" cx="35.0097656" cy="56.896582" rx="3.23276367" ry="3.23276367"></ellipse>
                <path d="M35.0097656,62.7155273 C31.8008789,62.7155273 29.1908203,60.1053223 29.1908203,56.896582 C29.1908203,53.6878418 31.8008789,51.0776367 35.0097656,51.0776367 C38.2186523,51.0776367 40.8287109,53.6876953 40.8287109,56.896582 C40.8287109,60.1054688 38.2186523,62.7155273 35.0097656,62.7155273 Z M35.0097656,53.6638184 C33.2273438,53.6638184 31.777002,55.1141602 31.777002,56.896582 C31.777002,58.6790039 33.2273438,60.1293457 35.0097656,60.1293457 C36.7921875,60.1293457 38.2425293,58.6790039 38.2425293,56.896582 C38.2425293,55.1141602 36.7921875,53.6638184 35.0097656,53.6638184 Z" id="Shape" fill="#EFF2FA"></path>
                <path d="M67.9838379,75 L48.5874023,75 C47.5161621,75 46.6478027,74.1314941 46.6478027,73.0604004 L46.6478027,1.93959961 C46.6476562,0.868505859 47.5161621,0 48.5874023,0 L67.9839844,0 C69.0552246,0 69.923584,0.868505859 69.923584,1.93959961 L69.923584,73.0602539 C69.923584,74.1314941 69.0550781,75 67.9838379,75 Z" id="Shape" fill="#C3E678"></path>
                <path d="M64.7510742,45.2586914 L51.8200195,45.2586914 C51.1059082,45.2586914 50.5268555,44.6796387 50.5268555,43.9655273 L50.5268555,11.6378906 C50.5268555,10.9237793 51.1059082,10.3447266 51.8200195,10.3447266 L64.7510742,10.3447266 C65.4651855,10.3447266 66.0442383,10.9237793 66.0442383,11.6378906 L66.0442383,43.9655273 C66.0442383,44.6796387 65.465332,45.2586914 64.7510742,45.2586914 Z" id="Shape" fill="#EFF2FA"></path>
                <g id="Group" transform="translate(53.027344, 19.335938)" fill="#D7DEED">
                    <path d="M9.13754883,2.64682617 L1.37885742,2.64682617 C0.664746094,2.64682617 0.0856933594,2.06777344 0.0856933594,1.35366211 C0.0856933594,0.639550781 0.664746094,0.0604980469 1.37885742,0.0604980469 L9.13754883,0.0604980469 C9.85166016,0.0604980469 10.4307129,0.639550781 10.4307129,1.35366211 C10.4307129,2.06777344 9.85166016,2.64682617 9.13754883,2.64682617 Z" id="Shape"></path>
                    <path d="M9.13754883,7.81918945 L1.37885742,7.81918945 C0.664746094,7.81918945 0.0856933594,7.24013672 0.0856933594,6.52602539 C0.0856933594,5.81191406 0.664746094,5.23286133 1.37885742,5.23286133 L9.13754883,5.23286133 C9.85166016,5.23286133 10.4307129,5.81191406 10.4307129,6.52602539 C10.4307129,7.24013672 9.85166016,7.81918945 9.13754883,7.81918945 Z" id="Shape"></path>
                    <path d="M9.13754883,12.9916992 L1.37885742,12.9916992 C0.664746094,12.9916992 0.0856933594,12.4126465 0.0856933594,11.6985352 C0.0856933594,10.9844238 0.664746094,10.4053711 1.37885742,10.4053711 L9.13754883,10.4053711 C9.85166016,10.4053711 10.4307129,10.9844238 10.4307129,11.6985352 C10.4307129,12.4126465 9.85166016,12.9916992 9.13754883,12.9916992 Z" id="Shape"></path>
                    <path d="M9.13754883,23.3364258 L1.37885742,23.3364258 C0.664746094,23.3364258 0.0856933594,22.757373 0.0856933594,22.0432617 C0.0856933594,21.3291504 0.664746094,20.7500977 1.37885742,20.7500977 L9.13754883,20.7500977 C9.85166016,20.7500977 10.4307129,21.3291504 10.4307129,22.0432617 C10.4307129,22.757373 9.85166016,23.3364258 9.13754883,23.3364258 Z" id="Shape"></path>
                </g>
                <g id="Group" transform="translate(50.390625, 8.935547)" fill="#C7CFE2">
                    <rect id="Rectangle-path" x="0.136376953" y="25.9782715" width="15.5172363" height="2.58618164"></rect>
                    <path d="M15.6536133,6.58168945 L0.136376953,6.58168945 L0.136376953,1.40932617 C0.136376953,0.695214844 0.715429687,0.116162109 1.42954102,0.116162109 L14.3605957,0.116162109 C15.074707,0.116162109 15.6537598,0.695214844 15.6537598,1.40932617 L15.6537598,6.58168945 L15.6536133,6.58168945 Z" id="Shape"></path>
                </g>
                <ellipse id="Oval" fill="#464655" cx="58.2856934" cy="56.896582" rx="3.23276367" ry="3.23276367"></ellipse>
                <path d="M58.2856934,62.7155273 C55.0768066,62.7155273 52.466748,60.1053223 52.466748,56.896582 C52.466748,53.6878418 55.0768066,51.0776367 58.2856934,51.0776367 C61.4945801,51.0776367 64.1046387,53.6876953 64.1046387,56.896582 C64.1046387,60.1054688 61.4942871,62.7155273 58.2856934,62.7155273 Z M58.2856934,53.6638184 C56.5032715,53.6638184 55.0529297,55.1141602 55.0529297,56.896582 C55.0529297,58.6790039 56.5032715,60.1293457 58.2856934,60.1293457 C60.0681152,60.1293457 61.518457,58.6790039 61.518457,56.896582 C61.518457,55.1141602 60.0679687,53.6638184 58.2856934,53.6638184 Z" id="Shape" fill="#EFF2FA"></path>
                <path d="M21.4321289,75 L2.03569336,75 C0.964453125,75 0.09609375,74.1314941 0.09609375,73.0604004 L0.09609375,1.93959961 C0.0959472656,0.868505859 0.964453125,0 2.03569336,0 L21.4321289,0 C22.5033691,0 23.3717285,0.868505859 23.3717285,1.93959961 L23.3717285,73.0602539 C23.371875,74.1314941 22.5033691,75 21.4321289,75 Z" id="Shape" fill="#FF6464"></path>
                <path d="M18.1993652,45.2586914 L5.26845703,45.2586914 C4.5543457,45.2586914 3.97529297,44.6796387 3.97529297,43.9655273 L3.97529297,11.6378906 C3.97529297,10.9237793 4.5543457,10.3447266 5.26845703,10.3447266 L18.1995117,10.3447266 C18.913623,10.3447266 19.4926758,10.9237793 19.4926758,11.6378906 L19.4926758,43.9655273 C19.4925293,44.6796387 18.9134766,45.2586914 18.1993652,45.2586914 Z" id="Shape" fill="#EFF2FA"></path>
                <g id="Group" transform="translate(6.445312, 19.335938)" fill="#D7DEED">
                    <path d="M9.16787109,2.64682617 L1.40932617,2.64682617 C0.695214844,2.64682617 0.116162109,2.06777344 0.116162109,1.35366211 C0.116162109,0.639550781 0.695214844,0.0604980469 1.40932617,0.0604980469 L9.16801758,0.0604980469 C9.88212891,0.0604980469 10.4611816,0.639550781 10.4611816,1.35366211 C10.4611816,2.06777344 9.88198242,2.64682617 9.16787109,2.64682617 Z" id="Shape"></path>
                    <path d="M9.16787109,7.81918945 L1.40932617,7.81918945 C0.695214844,7.81918945 0.116162109,7.24013672 0.116162109,6.52602539 C0.116162109,5.81191406 0.695214844,5.23286133 1.40932617,5.23286133 L9.16801758,5.23286133 C9.88212891,5.23286133 10.4611816,5.81191406 10.4611816,6.52602539 C10.4611816,7.24013672 9.88198242,7.81918945 9.16787109,7.81918945 Z" id="Shape"></path>
                    <path d="M9.16787109,12.9916992 L1.40932617,12.9916992 C0.695214844,12.9916992 0.116162109,12.4126465 0.116162109,11.6985352 C0.116162109,10.9844238 0.695214844,10.4053711 1.40932617,10.4053711 L9.16801758,10.4053711 C9.88212891,10.4053711 10.4611816,10.9844238 10.4611816,11.6985352 C10.4610352,12.4126465 9.88198242,12.9916992 9.16787109,12.9916992 Z" id="Shape"></path>
                    <path d="M9.16787109,23.3364258 L1.40932617,23.3364258 C0.695214844,23.3364258 0.116162109,22.757373 0.116162109,22.0432617 C0.116162109,21.3291504 0.695214844,20.7500977 1.40932617,20.7500977 L9.16801758,20.7500977 C9.88212891,20.7500977 10.4611816,21.3291504 10.4611816,22.0432617 C10.4611816,22.757373 9.88198242,23.3364258 9.16787109,23.3364258 Z" id="Shape"></path>
                </g>
                <g id="Group" transform="translate(3.955078, 8.935547)" fill="#C7CFE2">
                    <rect id="Rectangle-path" x="0.0202148438" y="25.9782715" width="15.5172363" height="2.58618164"></rect>
                    <path d="M15.5374512,6.58168945 L0.0202148437,6.58168945 L0.0202148437,1.40932617 C0.0202148437,0.695214844 0.599267578,0.116162109 1.31337891,0.116162109 L14.2444336,0.116162109 C14.9585449,0.116162109 15.5375977,0.695214844 15.5375977,1.40932617 L15.5375977,6.58168945 L15.5374512,6.58168945 Z" id="Shape"></path>
                </g>
                <ellipse id="Oval" fill="#464655" cx="11.7338379" cy="56.896582" rx="3.23276367" ry="3.23276367"></ellipse>
                <path d="M11.7338379,62.7155273 C8.52495117,62.7155273 5.91489258,60.1053223 5.91489258,56.896582 C5.91489258,53.6878418 8.52495117,51.0776367 11.7338379,51.0776367 C14.9427246,51.0776367 17.5527832,53.6876953 17.5527832,56.896582 C17.5527832,60.1054688 14.9427246,62.7155273 11.7338379,62.7155273 Z M11.7338379,53.6638184 C9.95141602,53.6638184 8.50107422,55.1141602 8.50107422,56.896582 C8.50107422,58.6790039 9.95141602,60.1293457 11.7338379,60.1293457 C13.5162598,60.1293457 14.9666016,58.6790039 14.9666016,56.896582 C14.9666016,55.1141602 13.5162598,53.6638184 11.7338379,53.6638184 Z" id="Shape" fill="#EFF2FA"></path>
            </g>
        </g>
    </g>
</svg>