<?xml version="1.0" encoding="UTF-8"?>
<svg width="45px" height="31px" viewBox="0 0 45 31" version="1.1" xmlns="http://www.w3.org/2000/svg" xmlns:xlink="http://www.w3.org/1999/xlink">
    <!-- Generator: Sketch 41 (35326) - http://www.bohemiancoding.com/sketch -->
    <title>Line</title>
    <desc>Created with Sketch.</desc>
    <defs></defs>
    <g id="Page-1" stroke="none" stroke-width="1" fill="none" fill-rule="evenodd">
        <g id="Safaty-Bio-Life---2" transform="translate(-603.000000, -1676.000000)" fill="#7ED321">
            <g id="Group-2" transform="translate(273.000000, 1661.000000)">
                <path d="M341.337704,34.0880128 C338.867095,31.4409314 335.805301,29.2364397 332.09847,27.624774 C331.338744,27.2944584 330.455091,27.6425642 330.124776,28.4022899 C329.79446,29.1620156 330.142566,30.0456686 330.902292,30.3759841 C334.223238,31.819874 336.948481,33.7820489 339.144539,36.1349675 C340.849407,37.961612 342.140489,39.9177975 343.072851,41.8692523 C343.39658,42.546825 343.651679,43.1725394 343.845119,43.7290094 C343.956734,44.0500944 344.021035,44.2676548 344.045167,44.3641825 C344.432152,45.9121233 346.647813,45.8656613 346.969566,44.3028584 C347.014646,44.0838991 347.138308,43.6221901 347.36511,42.9524404 C347.753515,41.8054772 348.29422,40.5191051 349.011729,39.1276251 C351.078695,35.1191167 354.148415,31.0982861 358.422349,27.3332658 C362.535764,23.7096512 367.563863,20.5161289 373.601609,17.874615 C374.360579,17.5425658 374.706666,16.6581204 374.374617,15.8991508 C374.042568,15.1401812 373.158122,14.7940938 372.399153,15.126143 C366.078365,17.8914875 360.786713,21.2524016 356.439291,25.0821595 C351.876739,29.1014308 348.579012,33.4209125 346.345341,37.7527165 C345.985348,38.4508577 345.664843,39.1274029 345.381364,39.7789924 C344.364565,37.8324011 343.031514,35.9028084 341.337704,34.0880128 Z" id="Line"></path>
            </g>
        </g>
    </g>
</svg>