<?xml version="1.0" encoding="UTF-8"?>
<svg width="51px" height="60px" viewBox="0 0 51 60" version="1.1" xmlns="http://www.w3.org/2000/svg" xmlns:xlink="http://www.w3.org/1999/xlink">
    <!-- Generator: Sketch 41 (35326) - http://www.bohemiancoding.com/sketch -->
    <title>Group</title>
    <desc>Created with Sketch.</desc>
    <defs></defs>
    <g id="Page-1" stroke="none" stroke-width="1" fill="none" fill-rule="evenodd">
        <g id="Safaty-Bio-Life---2" transform="translate(-919.000000, -1653.000000)" fill="#7ED321">
            <g id="Group-2" transform="translate(273.000000, 1653.000000)">
                <g id="Group" transform="translate(646.779777, 0.000000)">
                    <path d="M49.8202806,53.3645408 L41.8836735,34.2040816 C41.6815051,33.7160714 41.1219388,33.4840561 40.633801,33.686352 C40.1456633,33.888648 39.9137755,34.4482143 40.1160714,34.9362245 L47.2909439,52.2577806 L40.7464286,50.3614796 C40.3168367,50.2368622 39.8580357,50.4269133 39.6423469,50.8188776 L36.3554847,56.7873724 L28.6568878,38.201148 C37.5424745,36.4876276 44.2751276,28.6535714 44.2751276,19.2753827 C44.2752551,8.64693878 35.6284439,0 25,0 C14.3715561,0 5.72461735,8.64693878 5.72461735,19.2753827 C5.72461735,23.5803571 7.1434949,27.559949 9.53788265,30.7719388 L0.179719388,53.3645408 C0.0390306122,53.7043367 0.105484694,54.0946429 0.350765306,54.3686224 C0.595918367,54.642602 0.976658163,54.7517857 1.32984694,54.6494898 L9.05089286,52.4121173 L12.9284439,59.4538265 C13.0973214,59.7603316 13.4191327,59.9489796 13.766199,59.9489796 C13.783801,59.9489796 13.8015306,59.9484694 13.8192602,59.9475765 C14.1864796,59.9271684 14.5094388,59.6982143 14.6502551,59.3584184 L22.0655612,41.45625 C22.2677296,40.9681122 22.0359694,40.4085459 21.5478316,40.2063776 C21.0596939,40.0042092 20.5001276,40.2359694 20.2979592,40.7241071 L13.6442602,56.7873724 L10.3576531,50.8188776 C10.1418367,50.4269133 9.68278061,50.2368622 9.25344388,50.3614796 L2.70905612,52.2577806 L10.9229592,32.427551 C14.4431122,36.1928571 19.4510204,38.5506378 25,38.5506378 C25.5728316,38.5506378 26.1394133,38.5239796 26.6996173,38.4748724 L35.3498724,59.3584184 C35.4905612,59.6982143 35.813648,59.9271684 36.1807398,59.947449 C36.1985969,59.9484694 36.216199,59.9489796 36.2339286,59.9489796 C36.5809949,59.9489796 36.9028061,59.7603316 37.0715561,59.4538265 L40.9492347,52.4121173 L48.6702806,54.6494898 C49.0237245,54.7519133 49.4040816,54.642602 49.6493622,54.3686224 C49.8946429,54.0946429 49.9609694,53.7043367 49.8202806,53.3645408 L49.8202806,53.3645408 Z M7.63788265,19.2753827 C7.63788265,9.70191327 15.4265306,1.91326531 25,1.91326531 C34.5734694,1.91326531 42.3619898,9.70191327 42.3619898,19.2753827 C42.3619898,28.848852 34.5734694,36.6373724 25,36.6373724 C15.4265306,36.6373724 7.63788265,28.848852 7.63788265,19.2753827 L7.63788265,19.2753827 Z" id="Shape"></path>
                    <path d="M36.0534439,15.683801 C35.9433673,15.3447704 35.6535714,15.0950255 35.3019133,15.0359694 L28.8647959,13.9557398 L25.8483418,8.16760204 C25.6835459,7.85140306 25.3566327,7.65306122 25,7.65306122 C24.6434949,7.65306122 24.3164541,7.85140306 24.1516582,8.16760204 L21.1350765,13.9557398 L14.6980867,15.0359694 C14.3464286,15.094898 14.0567602,15.3446429 13.9465561,15.683801 C13.836352,16.0229592 13.923852,16.3951531 14.1737245,16.6496173 L18.7464286,21.3071429 L17.7846939,27.7630102 C17.7321429,28.1156888 17.880102,28.4682398 18.1686224,28.6779337 C18.4568878,28.8873724 18.8381378,28.9191327 19.1572704,28.7603316 L25,25.8506378 L30.842602,28.7603316 C30.9776786,28.827551 31.1235969,28.8607143 31.2690051,28.8607143 C31.467602,28.8607143 31.6649235,28.7989796 31.8313776,28.6780612 C32.119898,28.4683673 32.2678571,28.1158163 32.2153061,27.7631378 L31.253699,21.3072704 L35.8264031,16.6496173 C36.076148,16.3951531 36.163648,16.0229592 36.0534439,15.683801 L36.0534439,15.683801 Z M29.5545918,20.3067602 C29.3443878,20.5209184 29.2468112,20.8211735 29.2910714,21.1178571 L30.052551,26.2293367 L25.4265306,23.9256378 C25.2920918,23.858801 25.1461735,23.8252551 25,23.8252551 C24.8539541,23.8252551 24.7077806,23.8586735 24.5735969,23.9256378 L19.9475765,26.2293367 L20.7090561,21.1178571 C20.7533163,20.8211735 20.6557398,20.5207908 20.4455357,20.3067602 L16.825,16.6190051 L21.9215561,15.763648 C22.2174745,15.7140306 22.4729592,15.5284439 22.6116071,15.2623724 L25,10.6795918 L27.3883929,15.2625 C27.5271684,15.5285714 27.7825255,15.7141582 28.0784439,15.7637755 L33.1751276,16.6191327 L29.5545918,20.3067602 L29.5545918,20.3067602 Z" id="Shape"></path>
                    <path d="M39.4913265,20.2403061 C38.9674745,20.1702806 38.4866071,20.5391582 38.4173469,21.0630102 C37.5299745,27.7603316 31.7617347,32.8109694 25,32.8109694 C17.5364796,32.8109694 11.4644133,26.7390306 11.4644133,19.2753827 C11.4644133,11.8117347 17.5364796,5.73979592 25,5.73979592 C31.7618622,5.73979592 37.5299745,10.7903061 38.4173469,17.4877551 C38.4866071,18.0116071 38.9683673,18.3807398 39.4913265,18.3104592 C40.0149235,18.2410714 40.3834184,17.7602041 40.3139031,17.2364796 C39.301148,9.59158163 32.717602,3.82653061 25,3.82653061 C16.4815051,3.82653061 9.55114796,10.7567602 9.55114796,19.2753827 C9.55114796,27.7940051 16.4815051,34.7241071 25,34.7241071 C32.717602,34.7241071 39.301148,28.9590561 40.3140306,21.3141582 C40.3834184,20.7905612 40.015051,20.3096939 39.4913265,20.2403061 L39.4913265,20.2403061 Z" id="Shape"></path>
                </g>
            </g>
        </g>
    </g>
</svg>